<svg width="12" height="12" viewBox="0 0 12 12" fill="none" xmlns="http://www.w3.org/2000/svg">
<g clip-path="url(#clip0_11362_5521)">
<path d="M3.4316 4.49953C3.36729 4.34316 3.21656 4.24219 3.0475 4.24219C3.04739 4.24219 3.04725 4.24219 3.04711 4.24219C2.87791 4.24233 2.72718 4.34362 2.66311 4.50023C2.662 4.50288 2.66095 4.50555 2.65994 4.50823L1.60383 7.28112C1.53471 7.46257 1.62579 7.66568 1.80724 7.73477C1.98869 7.80389 2.1918 7.71281 2.2609 7.53136L2.43768 7.0672H3.64919L3.82399 7.53037C3.89254 7.71204 4.09537 7.8037 4.27704 7.73515C4.4587 7.66659 4.55039 7.46377 4.48183 7.2821L3.43535 4.50909C3.43415 4.50591 3.43291 4.50272 3.4316 4.49953ZM2.70553 6.3641L3.04626 5.46947L3.3839 6.3641H2.70553Z" fill="url(#paint0_linear_11362_5521)"/>
<path d="M10.4192 7.40625C10.4192 7.21209 10.2618 7.05469 10.0676 7.05469H9.2341V6.35156H9.98023C10.1744 6.35156 10.3318 6.19416 10.3318 6C10.3318 5.80584 10.1744 5.64844 9.98023 5.64844H9.2341V4.94531H10.0676C10.2618 4.94531 10.4192 4.78791 10.4192 4.59375C10.4192 4.39959 10.2618 4.24219 10.0676 4.24219H8.88254C8.68838 4.24219 8.53098 4.39959 8.53098 4.59375V7.40625C8.53098 7.60041 8.68838 7.75781 8.88254 7.75781H10.0676C10.2618 7.75781 10.4192 7.60041 10.4192 7.40625Z" fill="url(#paint1_linear_11362_5521)"/>
<path d="M7.71063 5.64844H6.8693C6.67514 5.64844 6.51774 5.80584 6.51774 6C6.51774 6.19416 6.67514 6.35156 6.8693 6.35156H7.31843C7.22874 6.72424 6.98213 7.05469 6.49669 7.05469C5.91513 7.05469 5.442 6.58155 5.442 6C5.442 5.41845 5.91513 4.94531 6.49669 4.94531C6.70809 4.94531 6.91191 5.00752 7.08614 5.12524C7.24704 5.23395 7.46557 5.19159 7.57425 5.03072C7.68295 4.86982 7.64063 4.65129 7.47973 4.54259C7.18885 4.34606 6.84891 4.24219 6.49669 4.24219C5.52743 4.24219 4.73888 5.03074 4.73888 6C4.73888 6.96926 5.52743 7.75781 6.49669 7.75781C7.41844 7.75781 8.0622 7.03498 8.0622 6C8.0622 5.80584 7.90479 5.64844 7.71063 5.64844Z" fill="url(#paint2_linear_11362_5521)"/>
<path d="M11.3103 8.79375C11.7615 7.93875 12 6.97268 12 6C12 4.39734 11.3759 2.89062 10.2427 1.75734C9.10938 0.624117 7.60266 0 6 0C4.39734 0 2.89062 0.624117 1.75734 1.75734C0.624117 2.89062 0 4.39734 0 6C0 7.60266 0.624117 9.10938 1.75734 10.2427C2.89062 11.3759 4.39734 12 6 12C6.19416 12 6.35156 11.8426 6.35156 11.6484C6.35156 11.4543 6.19416 11.2969 6 11.2969C3.07929 11.2969 0.703125 8.92071 0.703125 6C0.703125 3.07929 3.07929 0.703125 6 0.703125C8.92071 0.703125 11.2969 3.07929 11.2969 6C11.2969 7.45158 10.6949 8.83359 9.65831 9.82612L9.67959 9.34387C9.68815 9.14991 9.53784 8.98573 9.34387 8.97715C9.14991 8.96859 8.9857 9.1189 8.97715 9.31287L8.92087 10.5879C8.9123 10.7824 9.06335 10.9468 9.25784 10.9547L10.6455 11.011C10.8395 11.0189 11.0031 10.868 11.011 10.674C11.0189 10.48 10.868 10.3163 10.674 10.3084L10.1913 10.2889C10.6389 9.8516 11.019 9.34584 11.3103 8.79375Z" fill="url(#paint3_linear_11362_5521)"/>
</g>
<defs>
<linearGradient id="paint0_linear_11362_5521" x1="1.5807" y1="4.55406" x2="4.83594" y2="4.93637" gradientUnits="userSpaceOnUse">
<stop stop-color="#1A47BF"/>
<stop offset="1" stop-color="#D63ACA"/>
</linearGradient>
<linearGradient id="paint1_linear_11362_5521" x1="8.53098" y1="4.55406" x2="10.65" y2="4.71477" gradientUnits="userSpaceOnUse">
<stop stop-color="#1A47BF"/>
<stop offset="1" stop-color="#D63ACA"/>
</linearGradient>
<linearGradient id="paint2_linear_11362_5521" x1="4.73888" y1="4.55406" x2="8.4242" y2="5.04601" gradientUnits="userSpaceOnUse">
<stop stop-color="#1A47BF"/>
<stop offset="1" stop-color="#D63ACA"/>
</linearGradient>
<linearGradient id="paint3_linear_11362_5521" x1="1.26063e-08" y1="1.06452" x2="13.2794" y2="2.93976" gradientUnits="userSpaceOnUse">
<stop stop-color="#1A47BF"/>
<stop offset="1" stop-color="#D63ACA"/>
</linearGradient>
<clipPath id="clip0_11362_5521">
<rect width="12" height="12" fill="white"/>
</clipPath>
</defs>
</svg>
