<svg width="24" height="24" viewBox="0 0 24 24" fill="none" xmlns="http://www.w3.org/2000/svg">
<path d="M4.44784 7.96942C4.76219 5.14032 7.15349 3 10 3V3C12.8465 3 15.2378 5.14032 15.5522 7.96942L15.804 10.2356C15.8072 10.2645 15.8088 10.279 15.8104 10.2933C15.9394 11.4169 16.3051 12.5005 16.8836 13.4725C16.8909 13.4849 16.8984 13.4973 16.9133 13.5222L17.4914 14.4856C18.0159 15.3599 18.2782 15.797 18.2216 16.1559C18.1839 16.3946 18.061 16.6117 17.8757 16.7668C17.5971 17 17.0873 17 16.0678 17H3.93223C2.91268 17 2.40291 17 2.12434 16.7668C1.93897 16.6117 1.81609 16.3946 1.77841 16.1559C1.72179 15.797 1.98407 15.3599 2.50862 14.4856L3.08665 13.5222C3.10161 13.4973 3.10909 13.4849 3.11644 13.4725C3.69488 12.5005 4.06064 11.4169 4.18959 10.2933C4.19123 10.279 4.19283 10.2645 4.19604 10.2356L4.44784 7.96942Z" stroke="#879BA4"/>
<path d="M7.10222 17.4059C7.27315 18.1501 7.64978 18.8077 8.17372 19.2767C8.69765 19.7458 9.3396 20 10 20C10.6604 20 11.3024 19.7458 11.8263 19.2767C12.3502 18.8077 12.7269 18.1501 12.8978 17.4059" stroke="#879BA4" stroke-linecap="round"/>
</svg>
