<svg width="24" height="24" viewBox="0 0 24 24" fill="none" xmlns="http://www.w3.org/2000/svg">
<path d="M3.01001 11.2207V15.7107C3.01001 20.2007 4.81001 22.0007 9.30001 22.0007H14.69C19.18 22.0007 20.98 20.2007 20.98 15.7107V11.2207" stroke="url(#paint0_linear_11056_19554)" stroke-width="1.5" stroke-linecap="round" stroke-linejoin="round"/>
<path d="M12 12C13.83 12 15.18 10.51 15 8.68L14.34 2H9.66999L8.99999 8.68C8.81999 10.51 10.17 12 12 12Z" stroke="url(#paint1_linear_11056_19554)" stroke-width="1.5" stroke-linecap="round" stroke-linejoin="round"/>
<path d="M18.31 12C20.33 12 21.81 10.36 21.61 8.35L21.33 5.6C20.97 3 19.97 2 17.35 2H14.3L15 9.01C15.17 10.66 16.66 12 18.31 12Z" stroke="url(#paint2_linear_11056_19554)" stroke-width="1.5" stroke-linecap="round" stroke-linejoin="round"/>
<path d="M5.64 12C7.29 12 8.78 10.66 8.94 9.01L9.16 6.8L9.64001 2H6.59C3.97001 2 2.97 3 2.61 5.6L2.34 8.35C2.14 10.36 3.62 12 5.64 12Z" stroke="url(#paint3_linear_11056_19554)" stroke-width="1.5" stroke-linecap="round" stroke-linejoin="round"/>
<path d="M12 17C10.33 17 9.5 17.83 9.5 19.5V22H14.5V19.5C14.5 17.83 13.67 17 12 17Z" stroke="url(#paint4_linear_11056_19554)" stroke-width="1.5" stroke-linecap="round" stroke-linejoin="round"/>
<defs>
<linearGradient id="paint0_linear_11056_19554" x1="3.01001" y1="12.177" x2="22.2276" y2="16.7008" gradientUnits="userSpaceOnUse">
<stop stop-color="#1A47BF"/>
<stop offset="1" stop-color="#D63ACA"/>
</linearGradient>
<linearGradient id="paint1_linear_11056_19554" x1="8.98389" y1="2.8871" x2="15.7433" y2="3.46289" gradientUnits="userSpaceOnUse">
<stop stop-color="#1A47BF"/>
<stop offset="1" stop-color="#D63ACA"/>
</linearGradient>
<linearGradient id="paint2_linear_11056_19554" x1="14.3" y1="2.8871" x2="22.4835" y2="3.73395" gradientUnits="userSpaceOnUse">
<stop stop-color="#1A47BF"/>
<stop offset="1" stop-color="#D63ACA"/>
</linearGradient>
<linearGradient id="paint3_linear_11056_19554" x1="2.3219" y1="2.8871" x2="10.4945" y2="3.73167" gradientUnits="userSpaceOnUse">
<stop stop-color="#1A47BF"/>
<stop offset="1" stop-color="#D63ACA"/>
</linearGradient>
<linearGradient id="paint4_linear_11056_19554" x1="9.5" y1="17.4435" x2="15.0331" y2="18.2249" gradientUnits="userSpaceOnUse">
<stop stop-color="#1A47BF"/>
<stop offset="1" stop-color="#D63ACA"/>
</linearGradient>
</defs>
</svg>
