<svg width="24" height="24" viewBox="0 0 24 24" fill="none" xmlns="http://www.w3.org/2000/svg">
<path d="M8.5 19H8C4 19 2 18 2 13V8C2 4 4 2 8 2H16C20 2 22 4 22 8V13C22 17 20 19 16 19H15.5C15.19 19 14.89 19.15 14.7 19.4L13.2 21.4C12.54 22.28 11.46 22.28 10.8 21.4L9.3 19.4C9.14 19.18 8.77 19 8.5 19Z" stroke="url(#paint0_linear_11056_17946)" stroke-width="1.5" stroke-miterlimit="10" stroke-linecap="round" stroke-linejoin="round"/>
<path d="M15.9965 11H16.0054" stroke="url(#paint1_linear_11056_17946)" stroke-width="2" stroke-linecap="round" stroke-linejoin="round"/>
<path d="M11.9955 11H12.0045" stroke="url(#paint2_linear_11056_17946)" stroke-width="2" stroke-linecap="round" stroke-linejoin="round"/>
<path d="M7.99451 11H8.00349" stroke="url(#paint3_linear_11056_17946)" stroke-width="2" stroke-linecap="round" stroke-linejoin="round"/>
<defs>
<linearGradient id="paint0_linear_11056_17946" x1="2" y1="3.77952" x2="24.135" y2="6.89595" gradientUnits="userSpaceOnUse">
<stop stop-color="#1A47BF"/>
<stop offset="1" stop-color="#D63ACA"/>
</linearGradient>
<linearGradient id="paint1_linear_11056_17946" x1="15.502" y1="10.5887" x2="16.6064" y2="10.7444" gradientUnits="userSpaceOnUse">
<stop stop-color="#1A47BF"/>
<stop offset="1" stop-color="#D63ACA"/>
</linearGradient>
<linearGradient id="paint2_linear_11056_17946" x1="11.501" y1="10.5887" x2="12.6055" y2="10.7444" gradientUnits="userSpaceOnUse">
<stop stop-color="#1A47BF"/>
<stop offset="1" stop-color="#D63ACA"/>
</linearGradient>
<linearGradient id="paint3_linear_11056_17946" x1="7.5" y1="10.5887" x2="8.60449" y2="10.7444" gradientUnits="userSpaceOnUse">
<stop stop-color="#1A47BF"/>
<stop offset="1" stop-color="#D63ACA"/>
</linearGradient>
</defs>
</svg>
