<svg width="24" height="24" viewBox="0 0 24 24" fill="none" xmlns="http://www.w3.org/2000/svg">
<path d="M14.5607 18.15L16.71 20.29C16.8037 20.383 16.8781 20.4936 16.9289 20.6154C16.9797 20.7373 17.0058 20.868 17.0058 21C17.0058 21.132 16.9797 21.2627 16.9289 21.3846C16.8781 21.5064 16.8037 21.617 16.71 21.71C16.617 21.8037 16.5064 21.8781 16.3846 21.9289C16.2627 21.9797 16.132 22.0058 16 22.0058C15.868 22.0058 15.7373 21.9797 15.6154 21.9289C15.4936 21.8781 15.383 21.8037 15.29 21.71L13.15 19.5607V19.41H13L12.8937 19.5158L13 19.6226V21C13 21.2652 12.8946 21.5196 12.7071 21.7071C12.5196 21.8946 12.2652 22 12 22C11.7348 22 11.4804 21.8946 11.2929 21.7071C11.1054 21.5196 11 21.2652 11 21V19.6226L11.1063 19.5158L11 19.41H10.85V19.5607L8.71 21.71C8.61704 21.8037 8.50644 21.8781 8.38458 21.9289C8.26272 21.9797 8.13201 22.0058 8 22.0058C7.86799 22.0058 7.73728 21.9797 7.61542 21.9289C7.49356 21.8781 7.38296 21.8037 7.29 21.71C7.19627 21.617 7.12188 21.5064 7.07111 21.3846C7.02034 21.2627 6.9942 21.132 6.9942 21C6.9942 20.868 7.02034 20.7373 7.07111 20.6154C7.12188 20.4936 7.19627 20.383 7.29 20.29L9.43935 18.15H9.59V18L9.48417 17.8937L9.37741 18H5C4.20435 18 3.44129 17.6839 2.87868 17.1213C2.31607 16.5587 2 15.7956 2 15V5C2 4.73478 2.10536 4.48043 2.29289 4.29289C2.48043 4.10536 2.73478 4 3 4L14.5607 18.15ZM14.5607 18.15H14.41V18L14.5607 18.15ZM12.85 4V4.15H13H21C21.2254 4.15 21.4416 4.23955 21.601 4.39896C21.7604 4.55837 21.85 4.77457 21.85 5V15C21.85 15.7559 21.5497 16.4808 21.0153 17.0153C20.4808 17.5497 19.7559 17.85 19 17.85H14.41H14.0467L14.3042 18.1063L16.6042 20.3963L16.6044 20.3965C16.684 20.4755 16.7473 20.5695 16.7904 20.6731C16.8336 20.7767 16.8558 20.8878 16.8558 21C16.8558 21.1122 16.8336 21.2233 16.7904 21.3269C16.7473 21.4305 16.684 21.5245 16.6044 21.6035L16.6035 21.6044C16.5245 21.684 16.4305 21.7473 16.3269 21.7904C16.2233 21.8336 16.1122 21.8558 16 21.8558C15.8878 21.8558 15.7767 21.8336 15.6731 21.7904C15.5695 21.7473 15.4755 21.684 15.3965 21.6044L15.3963 21.6042L13.1063 19.3042L12.85 19.0467V19.41V21C12.85 21.2254 12.7604 21.4416 12.601 21.601C12.4416 21.7604 12.2254 21.85 12 21.85C11.7746 21.85 11.5584 21.7604 11.399 21.601C11.2396 21.4416 11.15 21.2254 11.15 21V19.41V19.0467L10.8937 19.3042L8.6037 21.6042L8.6035 21.6044C8.52448 21.684 8.43047 21.7473 8.32689 21.7904C8.22331 21.8336 8.11221 21.8558 8 21.8558C7.88779 21.8558 7.77669 21.8336 7.67311 21.7904C7.56953 21.7473 7.47552 21.684 7.3965 21.6044L7.39563 21.6035C7.31596 21.5245 7.25273 21.4305 7.20957 21.3269C7.16642 21.2233 7.1442 21.1122 7.1442 21C7.1442 20.8878 7.16642 20.7767 7.20957 20.6731C7.25273 20.5695 7.31596 20.4755 7.39563 20.3965L7.39583 20.3963L9.69583 18.1063L9.95325 17.85H9.59H5C4.24413 17.85 3.51922 17.5497 2.98475 17.0153C2.45027 16.4808 2.15 15.7559 2.15 15V5C2.15 4.77457 2.23955 4.55837 2.39896 4.39896C2.55837 4.23955 2.77457 4.15 3 4.15H11H11.15V4V3C11.15 2.77457 11.2396 2.55837 11.399 2.39896C11.5584 2.23955 11.7746 2.15 12 2.15C12.2254 2.15 12.4416 2.23955 12.601 2.39896C12.7604 2.55837 12.85 2.77457 12.85 3V4ZM4 5.85H3.85V6V15C3.85 15.305 3.97116 15.5975 4.18683 15.8132C4.40249 16.0288 4.695 16.15 5 16.15H19C19.305 16.15 19.5975 16.0288 19.8132 15.8132C20.0288 15.5975 20.15 15.305 20.15 15V6V5.85H20H4ZM9 9.85H7C6.77457 9.85 6.55837 9.76045 6.39896 9.60104C6.23955 9.44163 6.15 9.22543 6.15 9C6.15 8.77457 6.23955 8.55837 6.39896 8.39896C6.55837 8.23955 6.77457 8.15 7 8.15H9C9.22543 8.15 9.44163 8.23955 9.60104 8.39896C9.76045 8.55837 9.85 8.77457 9.85 9C9.85 9.22543 9.76045 9.44163 9.60104 9.60104C9.44163 9.76045 9.22543 9.85 9 9.85ZM13 13.85H7C6.77457 13.85 6.55837 13.7604 6.39896 13.601C6.23955 13.4416 6.15 13.2254 6.15 13C6.15 12.7746 6.23955 12.5584 6.39896 12.399C6.55837 12.2396 6.77457 12.15 7 12.15H13C13.2254 12.15 13.4416 12.2396 13.601 12.399C13.7604 12.5584 13.85 12.7746 13.85 13C13.85 13.2254 13.7604 13.4416 13.601 13.601C13.4416 13.7604 13.2254 13.85 13 13.85Z" fill="url(#paint0_linear_11056_13075)" stroke="white" stroke-width="0.3"/>
<defs>
<linearGradient id="paint0_linear_11056_13075" x1="2" y1="3.77471" x2="24.1326" y2="6.89925" gradientUnits="userSpaceOnUse">
<stop stop-color="#1A47BF"/>
<stop offset="1" stop-color="#D63ACA"/>
</linearGradient>
</defs>
</svg>
