<svg width="24" height="24" viewBox="0 0 24 24" fill="none" xmlns="http://www.w3.org/2000/svg">
<path fill-rule="evenodd" clip-rule="evenodd" d="M2.134 10.3577C1.568 10.0447 1.25 9.49666 1.25 8.92366C1.25 8.34966 1.568 7.80166 2.134 7.48966L10.448 2.89466C11.392 2.37366 12.608 2.37366 13.552 2.89466L21.866 7.48966C22.432 7.80166 22.75 8.34966 22.75 8.92366C22.75 9.49666 22.432 10.0447 21.866 10.3577L13.552 14.9517C12.608 15.4737 11.392 15.4737 10.448 14.9517L2.134 10.3577ZM2.859 9.04466L11.173 13.6387C11.676 13.9167 12.324 13.9167 12.827 13.6387L21.141 9.04466C21.196 9.01466 21.25 8.97866 21.25 8.92366C21.25 8.86766 21.196 8.83266 21.141 8.80166L12.827 4.20766C12.324 3.92966 11.676 3.92966 11.173 4.20766L2.859 8.80166C2.804 8.83266 2.75 8.86766 2.75 8.92366C2.75 8.97866 2.804 9.01466 2.859 9.04466Z" fill="#D0D8DB"/>
<path fill-rule="evenodd" clip-rule="evenodd" d="M18.25 11.25C18.25 10.836 18.586 10.5 19 10.5C19.414 10.5 19.75 10.836 19.75 11.25V15.75C19.75 17.821 18.071 19.5 16 19.5H8C5.929 19.5 4.25 17.821 4.25 15.75V11.25C4.25 10.836 4.586 10.5 5 10.5C5.414 10.5 5.75 10.836 5.75 11.25V15.75C5.75 16.993 6.757 18 8 18H16C17.243 18 18.25 16.993 18.25 15.75V11.25Z" fill="#D0D8DB"/>
<path fill-rule="evenodd" clip-rule="evenodd" d="M11.47 9.77975C11.177 9.48775 11.177 9.01175 11.47 8.71975C11.762 8.42675 12.238 8.42675 12.53 8.71975L16.03 12.2197C16.171 12.3598 16.25 12.5507 16.25 12.7497V20.7498C16.25 21.1637 15.914 21.4998 15.5 21.4998C15.086 21.4998 14.75 21.1637 14.75 20.7498V13.0607L11.47 9.77975Z" fill="#D0D8DB"/>
</svg>
