<svg width="24" height="24" viewBox="0 0 24 24" fill="none" xmlns="http://www.w3.org/2000/svg">
<path d="M16.4903 4.93359H6.73201C6.35926 4.93359 6.05701 5.23584 6.05701 5.60859C6.05701 5.98134 6.35926 6.28359 6.73201 6.28359H16.491C16.8638 6.28359 17.166 5.98134 17.166 5.60859C17.166 5.23584 16.863 4.93359 16.4903 4.93359Z" fill="#D0D8DB"/>
<path d="M17.1653 9.41328C17.1653 9.04053 16.863 8.73828 16.4903 8.73828H6.73201C6.35926 8.73828 6.05701 9.04053 6.05701 9.41328C6.05701 9.78603 6.35926 10.0883 6.73201 10.0883H16.491C16.863 10.0883 17.1653 9.78603 17.1653 9.41328Z" fill="#D0D8DB"/>
<path d="M6.73201 12.543C6.35926 12.543 6.05701 12.8452 6.05701 13.218C6.05701 13.5907 6.35926 13.893 6.73201 13.893H11.6475C12.0203 13.893 12.3225 13.5907 12.3225 13.218C12.3225 12.8452 12.0203 12.543 11.6475 12.543H6.73201Z" fill="#D0D8DB"/>
<path d="M8.48475 21.8242H4.308C3.732 21.8242 3.264 21.3555 3.264 20.7802V3.21822C3.264 2.64222 3.73275 2.17422 4.308 2.17422H18.915C19.4903 2.17422 19.959 2.64297 19.959 3.21822V9.62697C19.959 9.99972 20.2613 10.302 20.634 10.302C21.0068 10.302 21.309 9.99972 21.309 9.62697V3.21822C21.309 1.89822 20.235 0.824219 18.9158 0.824219H4.308C2.988 0.824219 1.914 1.89822 1.914 3.21822V20.7802C1.914 22.1002 2.988 23.1742 4.308 23.1742H8.48475C8.8575 23.1742 9.15975 22.872 9.15975 22.4992C9.15975 22.1265 8.8575 21.8242 8.48475 21.8242Z" fill="#D0D8DB"/>
<path d="M21.3502 12.6844C20.3707 11.7042 18.7755 11.7042 17.7967 12.6844L11.5905 18.8907C11.394 19.0872 11.265 19.3362 11.2185 19.6099L10.8795 21.6222C10.8075 22.0459 10.9462 22.4802 11.25 22.7839C11.5005 23.0352 11.8417 23.1739 12.1912 23.1739C12.2647 23.1739 12.3382 23.1679 12.4117 23.1552L14.4225 22.8154C14.697 22.7697 14.9467 22.6414 15.1432 22.4442L21.3495 16.2379C22.3297 15.2584 22.3297 13.6639 21.3502 12.6844ZM14.1997 21.4842L12.2107 21.8464L12.5445 19.8447L17.0107 15.3784L18.6562 17.0239L14.1997 21.4842ZM20.3955 15.2832L19.6102 16.0692L17.9647 14.4237L18.7507 13.6377C18.9772 13.4112 19.2757 13.2979 19.5735 13.2979C19.8712 13.2979 20.169 13.4112 20.3962 13.6377C20.8492 14.0922 20.8492 14.8294 20.3955 15.2832Z" fill="#D0D8DB"/>
</svg>
