<svg width="24" height="24" viewBox="0 0 24 24" fill="none" xmlns="http://www.w3.org/2000/svg">
<path d="M16.4903 4.93359H6.73201C6.35926 4.93359 6.05701 5.23584 6.05701 5.60859C6.05701 5.98134 6.35926 6.28359 6.73201 6.28359H16.491C16.8638 6.28359 17.166 5.98134 17.166 5.60859C17.166 5.23584 16.863 4.93359 16.4903 4.93359Z" fill="url(#paint0_linear_11056_13356)"/>
<path d="M17.1653 9.41328C17.1653 9.04053 16.863 8.73828 16.4903 8.73828H6.73201C6.35926 8.73828 6.05701 9.04053 6.05701 9.41328C6.05701 9.78603 6.35926 10.0883 6.73201 10.0883H16.491C16.863 10.0883 17.1653 9.78603 17.1653 9.41328Z" fill="url(#paint1_linear_11056_13356)"/>
<path d="M6.73201 12.543C6.35926 12.543 6.05701 12.8452 6.05701 13.218C6.05701 13.5907 6.35926 13.893 6.73201 13.893H11.6475C12.0203 13.893 12.3225 13.5907 12.3225 13.218C12.3225 12.8452 12.0203 12.543 11.6475 12.543H6.73201Z" fill="url(#paint2_linear_11056_13356)"/>
<path d="M8.48475 21.8242H4.308C3.732 21.8242 3.264 21.3555 3.264 20.7802V3.21822C3.264 2.64222 3.73275 2.17422 4.308 2.17422H18.915C19.4903 2.17422 19.959 2.64297 19.959 3.21822V9.62697C19.959 9.99972 20.2613 10.302 20.634 10.302C21.0068 10.302 21.309 9.99972 21.309 9.62697V3.21822C21.309 1.89822 20.235 0.824219 18.9158 0.824219H4.308C2.988 0.824219 1.914 1.89822 1.914 3.21822V20.7802C1.914 22.1002 2.988 23.1742 4.308 23.1742H8.48475C8.8575 23.1742 9.15975 22.872 9.15975 22.4992C9.15975 22.1265 8.8575 21.8242 8.48475 21.8242Z" fill="url(#paint3_linear_11056_13356)"/>
<path d="M21.3503 12.6844C20.3708 11.7042 18.7755 11.7042 17.7968 12.6844L11.5905 18.8907C11.394 19.0872 11.265 19.3362 11.2185 19.6099L10.8795 21.6222C10.8075 22.0459 10.9463 22.4802 11.25 22.7839C11.5005 23.0352 11.8418 23.1739 12.1913 23.1739C12.2648 23.1739 12.3383 23.1679 12.4118 23.1552L14.4225 22.8154C14.697 22.7697 14.9468 22.6414 15.1433 22.4442L21.3495 16.2379C22.3298 15.2584 22.3298 13.6639 21.3503 12.6844ZM14.1998 21.4842L12.2108 21.8464L12.5445 19.8447L17.0108 15.3784L18.6563 17.0239L14.1998 21.4842ZM20.3955 15.2832L19.6103 16.0692L17.9648 14.4237L18.7508 13.6377C18.9773 13.4112 19.2758 13.2979 19.5735 13.2979C19.8713 13.2979 20.169 13.4112 20.3963 13.6377C20.8493 14.0922 20.8493 14.8294 20.3955 15.2832Z" fill="url(#paint4_linear_11056_13356)"/>
<defs>
<linearGradient id="paint0_linear_11056_13356" x1="11.6115" y1="4.93359" x2="11.6115" y2="6.28359" gradientUnits="userSpaceOnUse">
<stop stop-color="#1A47BF"/>
<stop offset="1" stop-color="#D63ACA"/>
</linearGradient>
<linearGradient id="paint1_linear_11056_13356" x1="11.6111" y1="8.73828" x2="11.6111" y2="10.0883" gradientUnits="userSpaceOnUse">
<stop stop-color="#1A47BF"/>
<stop offset="1" stop-color="#D63ACA"/>
</linearGradient>
<linearGradient id="paint2_linear_11056_13356" x1="9.18976" y1="12.543" x2="9.18976" y2="13.893" gradientUnits="userSpaceOnUse">
<stop stop-color="#1A47BF"/>
<stop offset="1" stop-color="#D63ACA"/>
</linearGradient>
<linearGradient id="paint3_linear_11056_13356" x1="11.6115" y1="0.824219" x2="11.6115" y2="23.1742" gradientUnits="userSpaceOnUse">
<stop stop-color="#1A47BF"/>
<stop offset="1" stop-color="#D63ACA"/>
</linearGradient>
<linearGradient id="paint4_linear_11056_13356" x1="16.4728" y1="11.9492" x2="16.4728" y2="23.1739" gradientUnits="userSpaceOnUse">
<stop stop-color="#1A47BF"/>
<stop offset="1" stop-color="#D63ACA"/>
</linearGradient>
</defs>
</svg>
