<svg width="180" height="180" viewBox="0 0 180 180" fill="none" xmlns="http://www.w3.org/2000/svg">
<path d="M102.971 118.001L171.072 174.469C169.401 175.163 167.568 175.546 165.649 175.546H14.3476C12.4288 175.546 10.5986 175.163 8.92828 174.469L83.2205 112.964C86.6021 110.155 93.7434 110.351 97.3663 113.354L102.734 117.805L102.971 118.001ZM24.377 83.6144L24.2694 83.5363L0.175781 66.8332V161.385C0.175781 165.327 1.79789 168.897 4.41105 171.466L71.261 116.115L24.377 83.6144ZM155.794 83.492L155.575 83.6478L108.798 116.078L175.593 171.466C178.206 168.894 179.824 165.323 179.824 161.385V66.8332L155.794 83.492ZM28.3855 80.0661V33.6795C28.3855 29.9751 31.3956 26.9573 35.0965 26.9573H144.9C148.608 26.9573 151.625 29.9751 151.625 33.6795V80.0587L156.822 76.4583L177.86 61.8709L156.822 47.2945V40.9695V33.6795C156.822 27.1095 151.473 21.7608 144.899 21.7608H128.797H119.974L98.7469 7.062C94.0106 3.76961 86.2973 3.56535 81.9028 6.60918L60.0325 21.7608H50.9052H35.0965C28.5304 21.7608 23.1852 27.1095 23.1852 33.6795V40.9695V47.2945L2.13926 61.8706L23.1852 76.4618L28.3855 80.0661ZM107.644 52.4621V67.5016V67.5086V67.5163V75.462C107.644 77.9718 109.879 79.9926 111.73 79.9926C112.83 79.9926 113.802 79.2979 114.62 77.9289C115.532 76.4007 116.619 73.3519 116.619 67.5075C116.619 52.8291 104.678 40.8876 89.9993 40.8876C75.3212 40.8876 63.3793 52.8291 63.3793 67.5075C63.3793 82.186 75.3209 94.1272 89.9993 94.1272C95.6714 94.1272 101.087 92.3644 105.661 89.0288C106.821 88.1836 108.446 88.4378 109.292 89.5976C110.138 90.7574 109.883 92.3831 108.724 93.2286C103.254 97.217 96.7799 99.325 89.9996 99.325C72.4556 99.325 58.1822 85.0516 58.1822 67.5075C58.1822 49.9632 72.4556 35.6894 89.9996 35.6894C107.544 35.6894 121.817 49.9628 121.817 67.5075C121.817 73.1508 120.897 77.5534 119.083 80.5927C117.313 83.5574 114.702 85.1901 111.73 85.1901C108.029 85.1901 104.669 82.6437 103.212 79.1903C99.9749 82.8459 95.2502 85.1542 89.9986 85.1542C80.2698 85.1542 72.3561 77.237 72.3561 67.5082C72.3561 57.7721 80.2698 49.851 89.9986 49.851C94.853 49.851 99.2545 51.8215 102.447 55.0056V52.4617C102.447 51.0263 103.61 49.8626 105.045 49.8626C106.481 49.8626 107.644 51.0266 107.644 52.4621ZM102.446 67.4587C102.419 60.6113 96.8446 55.0517 89.9982 55.0517C83.135 55.0517 77.5526 60.638 77.5526 67.5086C77.5526 74.3718 83.135 79.9543 89.9982 79.9543C96.8446 79.9543 102.419 74.3985 102.446 67.5585V67.4587Z" fill="url(#paint0_linear_8692_12584)"/>
<defs>
<linearGradient id="paint0_linear_8692_12584" x1="90" y1="4.45312" x2="90" y2="175.546" gradientUnits="userSpaceOnUse">
<stop stop-color="#1A47BF"/>
<stop offset="1" stop-color="#D63ACA"/>
</linearGradient>
</defs>
</svg>
