<svg width="180" height="180" viewBox="0 0 180 180" fill="none" xmlns="http://www.w3.org/2000/svg">
<path d="M153.646 51.6611C152.195 49.2705 149.096 48.4942 146.694 49.9567C144.303 51.408 143.538 54.5186 144.989 56.9092C151.014 66.8542 154.197 78.2955 154.197 90.0067C154.197 125.405 125.403 154.199 90.0049 154.199C83.4236 154.199 76.9999 153.22 70.8461 151.291L77.8043 147.944C80.3243 146.729 81.3874 143.703 80.178 141.189C78.9574 138.669 75.9143 137.617 73.4224 138.815L55.8443 147.269C54.573 147.877 53.6168 148.996 53.2005 150.335C52.7843 151.679 52.9418 153.136 53.6449 154.357L63.3649 171.277C64.2986 172.908 66.0086 173.819 67.758 173.819C68.613 173.819 69.4793 173.6 70.2724 173.144C72.6968 171.755 73.5349 168.656 72.1399 166.231L69.3386 161.354C76.0099 163.295 82.923 164.33 90.0049 164.33C130.983 164.33 164.328 130.985 164.328 90.0067C164.328 76.4449 160.638 63.1811 153.646 51.6611Z" fill="url(#paint0_linear_8692_12666)"/>
<path d="M89.994 25.8021C96.5753 25.8021 102.999 26.7808 109.153 28.7102L102.195 32.0571C99.6746 33.2721 98.6115 36.2983 99.8209 38.8127C100.693 40.624 102.51 41.6871 104.394 41.6871C105.131 41.6871 105.879 41.524 106.582 41.1865L124.16 32.7321C125.432 32.1246 126.388 31.0052 126.804 29.6665C127.22 28.3221 127.063 26.8652 126.36 25.6446L116.64 8.72458C115.25 6.29458 112.151 5.4677 109.727 6.85708C107.302 8.24645 106.464 11.3458 107.859 13.7702L110.66 18.6471C103.989 16.7065 97.0815 15.6715 89.994 15.6715C49.0159 15.6715 15.6709 49.0164 15.6709 89.9946C15.6709 103.556 19.3609 116.82 26.3471 128.34C27.2978 129.91 28.9684 130.781 30.684 130.781C31.5784 130.781 32.4784 130.545 33.3053 130.045C35.6959 128.593 36.4609 125.483 35.0096 123.092C28.9853 113.147 25.8015 101.706 25.8015 89.9946C25.8015 54.5964 54.5959 25.8021 89.994 25.8021Z" fill="url(#paint1_linear_8692_12666)"/>
<path d="M108.539 83.673V71.7705C108.539 61.5498 100.22 53.2305 89.9995 53.2305C79.7789 53.2305 71.4595 61.5498 71.4595 71.7705V83.673C67.6626 84.6123 64.8389 88.0211 64.8389 92.1105V112.99C64.8389 117.805 68.7426 121.709 73.5576 121.709H106.447C111.262 121.709 115.166 117.805 115.166 112.99V92.1105C115.16 88.0211 112.336 84.6123 108.539 83.673ZM89.9995 63.3611C94.6345 63.3611 98.4089 67.1355 98.4089 71.7705V83.3917H81.5901V71.7705C81.5901 67.1355 85.3645 63.3611 89.9995 63.3611Z" fill="url(#paint2_linear_8692_12666)"/>
<defs>
<linearGradient id="paint0_linear_8692_12666" x1="108.65" y1="49.2168" x2="108.65" y2="173.819" gradientUnits="userSpaceOnUse">
<stop stop-color="#1A47BF"/>
<stop offset="1" stop-color="#D63ACA"/>
</linearGradient>
<linearGradient id="paint1_linear_8692_12666" x1="71.3514" y1="6.18359" x2="71.3514" y2="130.781" gradientUnits="userSpaceOnUse">
<stop stop-color="#1A47BF"/>
<stop offset="1" stop-color="#D63ACA"/>
</linearGradient>
<linearGradient id="paint2_linear_8692_12666" x1="90.0023" y1="53.2305" x2="90.0023" y2="121.709" gradientUnits="userSpaceOnUse">
<stop stop-color="#1A47BF"/>
<stop offset="1" stop-color="#D63ACA"/>
</linearGradient>
</defs>
</svg>
