<svg width="24" height="24" viewBox="0 0 24 24" fill="none" xmlns="http://www.w3.org/2000/svg">
<g clip-path="url(#clip0_11056_17956)">
<path d="M23.9605 19.2646L21.7144 6.527C21.5598 5.64974 20.9751 4.92487 20.1504 4.58803L14.7911 2.39884C14.5603 2.30458 14.3198 2.24626 14.0775 2.22222L13.7882 0.58118C13.7208 0.198776 13.3563 -0.0565041 12.9737 0.0108548C12.5912 0.0782607 12.3359 0.442946 12.4033 0.82535L12.6928 2.46657C12.4766 2.57059 12.2735 2.7054 12.091 2.86974L11.4839 3.41644L11.3939 3.33479C11.2093 3.16726 11.0033 3.0302 10.7838 2.92473L11.154 0.82535C11.2214 0.442946 10.9661 0.0782607 10.5837 0.0108548C10.2013 -0.0567854 9.83658 0.198729 9.76918 0.58118L9.39896 2.6807C9.16022 2.70451 8.92327 2.76175 8.69556 2.85381L3.2879 5.03915C2.45836 5.3744 1.87031 6.10058 1.71493 6.98178L0.0395755 16.4834C-0.207267 17.8834 0.730884 19.2232 2.13084 19.47L8.9783 20.6774L9.18844 21.8693C9.40871 23.1185 10.4991 24 11.7261 24C11.8742 24 12.0243 23.9871 12.1751 23.9606L21.8692 22.2512C23.2691 22.0043 24.2073 20.6646 23.9605 19.2646ZM21.625 20.8663L11.9309 22.5756C11.6226 22.63 11.3116 22.5611 11.0552 22.3815C10.7988 22.202 10.6276 21.9333 10.5733 21.625L10.452 20.9372L11.8249 21.1793C11.9762 21.206 12.1276 21.2192 12.2781 21.2192C12.8022 21.2192 13.313 21.0592 13.7513 20.7523C14.3155 20.3573 14.692 19.7663 14.8115 19.0881L16.4877 9.58192C16.6424 8.70462 16.3409 7.82351 15.6812 7.22497L12.5306 4.36622L13.0319 3.91472C13.2501 3.71822 13.533 3.61458 13.8187 3.61458C13.9677 3.61458 14.1175 3.6428 14.2593 3.70069L19.6186 5.88988C19.9934 6.04302 20.2592 6.37246 20.3295 6.77122L22.5755 19.5087C22.6878 20.1451 22.2613 20.7541 21.625 20.8663ZM1.4244 16.7276L3.09984 7.22595C3.17048 6.82541 3.43776 6.49532 3.81482 6.34293L9.13201 4.1941L8.97962 5.05847C8.91221 5.44087 9.16754 5.80556 9.54994 5.87296C9.59124 5.88027 9.6323 5.88374 9.67285 5.88374C10.0076 5.88374 10.3043 5.6437 10.3644 5.30259L10.5169 4.43789L14.7363 8.26639C15.0361 8.53845 15.1732 8.93894 15.1029 9.33771L13.4267 18.8439C13.3723 19.1522 13.2012 19.4208 12.9448 19.6003C12.6884 19.7799 12.3774 19.8488 12.0691 19.7945L2.37497 18.0851C1.73864 17.9729 1.31222 17.3639 1.4244 16.7276Z" fill="#D0D8DB"/>
<path d="M7.08311 16.3533L6.97084 16.99C6.92589 17.2449 7.09614 17.488 7.35109 17.533C7.3786 17.5379 7.40598 17.5402 7.43303 17.5402C7.6562 17.5402 7.85401 17.3801 7.89409 17.1527L8.01258 16.4808C8.49432 16.4793 8.95411 16.3455 9.36211 16.0847C9.84778 15.7744 10.2216 15.3038 10.4148 14.7596C10.8081 13.6517 10.3854 12.5534 9.33806 11.9616C9.165 11.8639 9.00581 11.7714 8.85858 11.6831L9.3269 9.0271C9.65611 9.14836 9.84557 9.3481 9.97171 9.48131C10.0076 9.51924 10.0416 9.55509 10.0762 9.58716C10.2664 9.76289 10.5629 9.75122 10.7386 9.56119C10.9144 9.37111 10.9027 9.07453 10.7127 8.8988C10.7009 8.88793 10.6763 8.86196 10.6525 8.83683C10.4826 8.65726 10.1273 8.28212 9.4912 8.09537L9.588 7.54628C9.63295 7.29133 9.4627 7.04823 9.20775 7.00328C8.9528 6.95838 8.70971 7.12853 8.66475 7.38353L8.55821 7.9877C8.46164 7.99131 8.36175 7.99853 8.25741 8.0109C7.48571 8.10245 6.82736 8.63372 6.53917 9.39745C6.27724 10.0917 6.38387 10.8232 6.81751 11.3067C7.05948 11.5764 7.37551 11.84 7.82588 12.1407L7.2459 15.43C6.78934 15.3247 6.51105 15.1773 6.06461 14.7582C5.87589 14.581 5.57922 14.5904 5.40204 14.7791C5.22485 14.9679 5.23418 15.2645 5.42294 15.4417C6.03058 16.012 6.47125 16.217 7.08311 16.3533ZM9.53133 14.4461C9.34842 14.9613 8.8658 15.4597 8.1796 15.5336L8.68481 12.6684C8.74706 12.7042 8.81105 12.7407 8.87681 12.7779C9.84032 13.3223 9.62142 14.1924 9.53133 14.4461ZM7.51538 10.6807C7.31635 10.4587 7.27839 10.0939 7.41629 9.72839C7.54491 9.38747 7.86244 9.00183 8.3678 8.94188C8.37544 8.94099 8.38275 8.94038 8.39035 8.93954L8.00598 11.1194C7.80085 10.964 7.64063 10.8202 7.51538 10.6807Z" fill="#D0D8DB"/>
</g>
<defs>
<clipPath id="clip0_11056_17956">
<rect width="24" height="24" fill="white"/>
</clipPath>
</defs>
</svg>
