<svg width="15" height="16" viewBox="0 0 15 16" fill="none" xmlns="http://www.w3.org/2000/svg">
<path d="M12.5 3V6.75H11.25V5.14062L8.76562 7.60938C8.96354 7.90104 9.11458 8.21083 9.21875 8.53875C9.32292 8.86708 9.375 9.20833 9.375 9.5625C9.375 10.5208 9.04167 11.3333 8.375 12C7.70833 12.6667 6.89583 13 5.9375 13C4.97917 13 4.16667 12.6667 3.5 12C2.83333 11.3333 2.5 10.5208 2.5 9.5625C2.5 8.60417 2.83333 7.79167 3.5 7.125C4.16667 6.45833 4.97917 6.125 5.9375 6.125C6.28125 6.125 6.61979 6.17458 6.95312 6.27375C7.28646 6.3725 7.59375 6.52604 7.875 6.73438L10.3594 4.25H8.75V3H12.5ZM5.9375 7.375C5.33333 7.375 4.81771 7.58854 4.39062 8.01562C3.96354 8.44271 3.75 8.95833 3.75 9.5625C3.75 10.1667 3.96354 10.6823 4.39062 11.1094C4.81771 11.5365 5.33333 11.75 5.9375 11.75C6.54167 11.75 7.05729 11.5365 7.48438 11.1094C7.91146 10.6823 8.125 10.1667 8.125 9.5625C8.125 8.95833 7.91146 8.44271 7.48438 8.01562C7.05729 7.58854 6.54167 7.375 5.9375 7.375Z" fill="url(#paint0_linear_11362_5529)"/>
<defs>
<linearGradient id="paint0_linear_11362_5529" x1="2.5" y1="3.8871" x2="13.5662" y2="5.4498" gradientUnits="userSpaceOnUse">
<stop stop-color="#1A47BF"/>
<stop offset="1" stop-color="#D63ACA"/>
</linearGradient>
</defs>
</svg>
