<svg width="11" height="11" viewBox="0 0 11 11" fill="none" xmlns="http://www.w3.org/2000/svg">
<path d="M9.51652 1.4835L9.51652 0.733499L10.2665 0.733499L10.2665 1.4835L9.51652 1.4835ZM1.45348 10.6072C1.16058 10.9001 0.685709 10.9001 0.392816 10.6072C0.0999223 10.3143 0.0999227 9.83944 0.392816 9.54654L1.45348 10.6072ZM0.549521 0.733499H9.51652L9.51652 2.2335H0.549521L0.549521 0.733499ZM10.2665 1.4835L10.2665 10.4505L8.76652 10.4505L8.76652 1.4835L10.2665 1.4835ZM10.0468 2.01383L1.45348 10.6072L0.392816 9.54654L8.98619 0.953169L10.0468 2.01383Z" fill="url(#paint0_linear_2310_8765)"/>
<defs>
<linearGradient id="paint0_linear_2310_8765" x1="5.82848" y1="-2.20454" x2="-2.40732" y2="8.60925" gradientUnits="userSpaceOnUse">
<stop stop-color="#1A47BF"/>
<stop offset="1" stop-color="#D63ACA"/>
</linearGradient>
</defs>
</svg>
