<svg width="193" height="41" viewBox="0 0 193 41" fill="none" xmlns="http://www.w3.org/2000/svg">
<g clip-path="url(#clip0_1906_11832)">
<path d="M185.527 30.2644C191.711 24.8322 196.478 15.2612 189.65 6.72496C190.552 5.30225 191.969 1.6808 189.263 0.387421C186.815 -0.776617 185.14 1.29278 184.625 2.84483C183.337 2.06881 179.987 0.516759 176.379 0.775434C172.772 0.516759 169.422 2.06881 168.134 2.84483C167.618 1.29278 165.943 -0.776617 163.496 0.387421C160.79 1.6808 162.207 5.30225 163.109 6.72496C153.06 19.4 168.52 34.6619 176.379 34.5325C177.024 34.5325 177.797 34.4032 178.57 34.2739C180.373 36.3433 182.564 38.2833 184.754 39.5767C189.65 42.4221 192.484 39.318 191.582 35.9552C191.196 34.1445 187.846 31.6871 185.527 30.2644Z" fill="url(#paint0_linear_1906_11832)"/>
<path d="M188.361 35.5679C188.646 35.5679 188.876 35.3363 188.876 35.0506C188.876 34.7648 188.646 34.5332 188.361 34.5332C188.076 34.5332 187.846 34.7648 187.846 35.0506C187.846 35.3363 188.076 35.5679 188.361 35.5679Z" fill="white"/>
<path d="M188.748 37.6363C189.032 37.6363 189.263 37.4046 189.263 37.1189C189.263 36.8332 189.032 36.6016 188.748 36.6016C188.463 36.6016 188.232 36.8332 188.232 37.1189C188.232 37.4046 188.463 37.6363 188.748 37.6363Z" fill="white"/>
<path d="M186.558 37.3784C186.843 37.3784 187.074 37.1468 187.074 36.8611C187.074 36.5754 186.843 36.3438 186.558 36.3438C186.274 36.3438 186.043 36.5754 186.043 36.8611C186.043 37.1468 186.274 37.3784 186.558 37.3784Z" fill="white"/>
<path d="M182.694 17.0721C183.982 22.763 178.957 24.1857 176.38 24.1857C172.902 24.1857 170.067 22.2456 169.81 18.3655C169.681 14.4854 173.675 10.0879 176.38 10.0879C179.086 10.2172 182.436 13.3213 182.694 17.0721Z" fill="white"/>
<path d="M180.374 18.4956C180.889 20.0476 178.312 20.4356 177.281 22.7637C177.281 21.8583 173.932 19.7889 173.932 18.7542C173.932 17.5902 176.251 17.3315 177.281 17.3315C178.183 17.2022 180.245 17.4609 180.374 18.4956Z" fill="url(#paint1_linear_1906_11832)"/>
<path d="M17.9085 19.7885C17.2644 19.1419 16.4913 18.6245 15.7183 18.1072C14.9453 17.5898 14.0434 17.2018 13.2704 16.9431C11.982 16.4258 10.8224 16.0378 9.92056 15.5204C9.01869 15.003 8.3745 14.615 7.98798 14.0977C7.60147 13.5803 7.34379 13.063 7.34379 12.4163C7.34379 11.7696 7.60147 11.1229 8.11682 10.7349C8.63218 10.2176 9.40521 9.95889 10.5648 9.95889C11.3378 9.95889 12.1108 10.0882 12.755 10.4762C13.3992 10.7349 13.9146 11.2523 14.4299 11.7696C15.3318 12.675 16.749 12.9336 17.9085 12.287L19.97 11.1229C19.4546 10.2176 18.8104 9.3122 18.0374 8.40684C17.2644 7.50147 16.2336 6.85479 14.9453 6.2081C13.6569 5.56141 12.2397 5.30273 10.4359 5.30273C8.76101 5.30273 7.34379 5.56141 5.92657 6.2081C4.50935 6.85479 3.47864 7.63081 2.70561 8.79485C2.06141 9.82955 1.6749 11.1229 1.6749 12.675C1.6749 13.9683 1.93258 15.0031 2.44793 15.9084C2.96328 16.8138 3.47864 17.5898 4.25167 18.2365C5.0247 18.8832 5.79773 19.4005 6.57076 19.7885C7.34379 20.1766 8.11682 20.4352 8.76101 20.6939C9.92056 21.2113 10.9513 21.5993 11.8531 21.9873C12.6262 22.3753 13.2704 22.8926 13.6569 23.41C14.0434 23.9273 14.3011 24.574 14.3011 25.4794C14.3011 26.3848 13.9146 27.1608 13.2704 27.8075C12.6262 28.1955 11.7243 28.4542 10.5648 28.4542C9.66288 28.4542 8.76101 28.1955 7.98798 27.8075C7.21495 27.4195 6.44192 26.7728 5.79773 26.1261C4.63818 24.8327 2.57677 24.4447 1.15955 25.4794L0 26.3848C0.644192 27.6781 1.41722 28.8422 2.44793 29.8769C3.47864 30.9116 4.76702 31.8169 6.18425 32.4636C7.60147 33.1103 9.14753 33.369 10.6936 33.369C11.8531 33.369 13.0127 33.2396 14.1722 32.8516C15.3318 32.4636 16.2336 31.9463 17.1355 31.2996C18.0374 30.6529 18.6816 29.7475 19.1969 28.7128C19.7123 27.6781 19.97 26.5141 19.97 25.2207C19.97 24.0567 19.8411 23.022 19.4546 22.1166C19.0681 21.0819 18.5527 20.4352 17.9085 19.7885Z" fill="#1F1E28"/>
<path d="M29.8913 25.8663L25.5108 15.002H19.9707L27.1857 30.7811L22.8052 40.9988H25.8973C27.0568 40.9988 28.0875 40.3521 28.6029 39.1881L39.2965 15.002H34.1429L29.8913 25.8663Z" fill="#1F1E28"/>
<path d="M64.9349 15.3913C64.1618 14.8739 63.1311 14.6152 61.7139 14.6152C60.5544 14.6152 59.3948 14.8739 58.4929 15.3913C57.5911 15.9086 56.818 16.6846 56.1738 17.59C55.7873 16.5553 55.1431 15.7793 54.3701 15.3913C53.4682 14.8739 52.4375 14.6152 51.1491 14.6152C49.9896 14.6152 48.9589 14.8739 48.1859 15.3913C47.284 15.9086 46.6398 16.6846 46.1244 17.59V15.0032H41.3574V32.5932H46.1244V21.8581C46.1244 21.0821 46.2533 20.4354 46.511 19.9181C46.7686 19.4007 47.1552 19.0127 47.5417 18.754C48.057 18.4954 48.5724 18.366 49.0877 18.366C49.9896 18.366 50.6338 18.6247 51.0203 19.2714C51.4068 19.9181 51.6645 20.8234 51.6645 21.9875V32.7225H56.6892V21.9875C56.6892 21.2114 56.818 20.5648 57.0757 20.0474C57.3334 19.5301 57.7199 19.142 58.1064 18.8834C58.6218 18.6247 59.1371 18.4954 59.6525 18.4954C60.5544 18.4954 61.1985 18.754 61.5851 19.4007C61.9716 20.0474 62.2292 20.9528 62.2292 22.1168V32.8518H67.1251V21.5995C67.1251 20.1767 66.8674 19.0127 66.4809 17.978C66.3521 16.6846 65.7079 15.9086 64.9349 15.3913Z" fill="#1F1E28"/>
<path d="M85.1621 15.5191C83.8737 14.7431 82.4565 14.4844 81.0392 14.4844C79.4932 14.4844 78.2048 14.8724 77.1741 15.6484C76.2722 16.1658 75.628 16.9418 75.1127 17.9765V15.1311H70.2168V41.1279H75.1127V29.7462C75.628 30.6516 76.401 31.4276 77.1741 32.0743C78.3336 32.8503 79.622 33.2383 81.0392 33.2383C82.4565 33.2383 83.8737 32.8503 85.1621 32.2036C86.4504 31.4276 87.4811 30.3929 88.2542 28.9702C89.0272 27.5475 89.4137 25.8661 89.4137 23.926C89.4137 21.8566 89.0272 20.1752 88.2542 18.8819C87.4811 17.3298 86.4504 16.1658 85.1621 15.5191ZM83.616 26.3834C83.2295 27.1595 82.5853 27.6768 81.9411 28.0648C81.1681 28.4528 80.395 28.5822 79.622 28.5822C78.849 28.5822 78.2048 28.4528 77.4317 28.0648C76.7876 27.6768 76.1434 27.1595 75.7568 26.3834C75.3703 25.6074 75.1127 24.702 75.1127 23.6673C75.1127 22.6326 75.3703 21.7273 75.7568 20.9513C76.1434 20.1752 76.7876 19.6579 77.4317 19.2699C78.0759 18.8819 78.849 18.7525 79.622 18.7525C80.5239 18.7525 81.2969 18.8819 81.9411 19.2699C82.7141 19.6579 83.2295 20.1752 83.616 20.9513C84.0025 21.7273 84.2602 22.6326 84.2602 23.6673C84.2602 24.702 84.1314 25.7367 83.616 26.3834Z" fill="#1F1E28"/>
<path d="M104.745 15.1311C103.586 14.7431 102.297 14.4844 100.751 14.4844C99.0762 14.4844 97.659 14.7431 96.3706 15.1311C95.0822 15.5191 93.9227 16.0364 93.0208 16.5538L94.8245 19.9166C95.0822 19.7872 95.4687 19.5285 95.9841 19.2699C96.4994 19.0112 97.1436 18.7525 97.9167 18.6232C98.6897 18.4938 99.4627 18.3645 100.236 18.3645C100.751 18.3645 101.266 18.3645 101.653 18.4938C102.04 18.6232 102.426 18.7525 102.813 19.0112C103.07 19.2699 103.328 19.5285 103.457 19.9166C103.586 20.3046 103.714 20.6926 103.714 21.2099V23.0207C103.07 22.6326 102.426 22.374 101.524 22.1153C100.622 21.8566 99.7204 21.7273 98.5609 21.7273C96.3706 21.7273 94.6957 22.2446 93.5362 23.2793C92.3766 24.314 91.7324 25.6074 91.7324 27.2888C91.7324 28.4528 91.9901 29.4875 92.6343 30.3929C93.1497 31.1689 93.9227 31.8156 94.9534 32.333C95.8553 32.721 96.886 32.9796 98.0455 32.9796C99.0762 32.9796 100.107 32.8503 101.138 32.4623C102.168 32.0743 102.941 31.5569 103.586 30.7809C103.714 30.6516 103.843 30.5222 103.972 30.2636V32.721H108.739V20.3046C108.739 19.1405 108.353 18.1058 107.708 17.2005C106.807 16.1658 105.905 15.6484 104.745 15.1311ZM103.199 27.6768C102.813 28.3235 102.297 28.7115 101.653 29.0995C101.009 29.3582 100.365 29.6169 99.5916 29.6169C99.0762 29.6169 98.5609 29.4875 98.1743 29.3582C97.7878 29.2289 97.4013 28.8408 97.1436 28.4528C96.886 28.0648 96.7571 27.6768 96.7571 27.1595C96.7571 26.6421 96.886 26.2541 97.1436 25.8661C97.4013 25.4781 97.7878 25.2194 98.1743 25.0901C98.6897 24.9607 99.3339 24.8314 99.9781 24.8314C100.88 24.8314 101.782 24.9607 102.684 25.2194C103.07 25.3487 103.457 25.4781 103.714 25.6074C103.714 26.3834 103.586 27.0301 103.199 27.6768Z" fill="#1F1E28"/>
<path d="M144.041 32.5919H148.808V17.33C148.808 16.0367 147.777 15.002 146.489 15.002H144.041V32.5919Z" fill="#1F1E28"/>
<path d="M138.63 15.1311C137.728 14.6137 136.568 14.355 135.28 14.355C133.863 14.355 132.703 14.7431 131.801 15.3897C131.028 15.9071 130.384 16.6831 129.997 17.4591V4.52539H125.102V32.5916H129.997V21.8566C129.997 21.0806 130.126 20.4339 130.384 19.9166C130.642 19.3992 131.028 19.0112 131.543 18.6232C132.059 18.3645 132.703 18.2352 133.347 18.2352C134.378 18.2352 135.151 18.4938 135.537 19.1405C135.924 19.7872 136.182 20.6926 136.182 21.8566V32.5916H141.078V21.2099C141.078 19.7872 140.82 18.4938 140.433 17.4591C140.176 16.4244 139.531 15.6484 138.63 15.1311Z" fill="#1F1E28"/>
<path d="M118.918 27.0315V19.1419H122.01V15.0031H118.918V10.9937C118.918 9.82962 118.016 8.79492 116.728 8.79492H114.151V14.8738H111.188V19.0126H114.151V27.6782C114.151 30.265 116.341 32.4637 118.918 32.4637H122.525V27.6782H119.562C119.175 27.8075 118.918 27.4195 118.918 27.0315Z" fill="#1F1E28"/>
<path d="M146.36 13.5806C147.854 13.5806 149.066 12.3646 149.066 10.8645C149.066 9.36447 147.854 8.14844 146.36 8.14844C144.866 8.14844 143.654 9.36447 143.654 10.8645C143.654 12.3646 144.866 13.5806 146.36 13.5806Z" fill="#1F1E28"/>
</g>
<defs>
<linearGradient id="paint0_linear_1906_11832" x1="159.82" y1="3.65256" x2="196.773" y2="7.91162" gradientUnits="userSpaceOnUse">
<stop stop-color="#1A47BF"/>
<stop offset="1" stop-color="#D63ACA"/>
</linearGradient>
<linearGradient id="paint1_linear_1906_11832" x1="173.932" y1="17.7854" x2="181.076" y2="18.9876" gradientUnits="userSpaceOnUse">
<stop stop-color="#1A47BF"/>
<stop offset="1" stop-color="#D63ACA"/>
</linearGradient>
<clipPath id="clip0_1906_11832">
<rect width="193" height="41" fill="white"/>
</clipPath>
</defs>
</svg>
